:version 1.10
:name ASF
:units
  mass 1
  length 1
  angle deg
:documentation
  ASF file generated by Kaydara
:root
  axis xyz
  order  tx ty tz rx ry rz
  position 0 0 0
  orientation 0 0 0
:bonedata
  begin
    id 1
    name abdomenDummy
    direction 1 -1.27917e-005 -1.26829e-007
    length 1.79048
    axis 0 0 0 xyz
  end
  begin
    id 2
    name abdomen
    direction 0.987238 0.159249 -9.68575e-008
    length 8.61378
    axis 2.73208e-005 5.54953e-006 9.16328 xyz
    dof rx ry rz
  end
  begin
    id 3
    name chest
    direction 0 0 0
    length 0
    axis 2.65071e-005 8.63688e-006 2.59796 xyz
    dof rx ry rz
  end
  begin
    id 4
    name neckDummyDummy
    direction 0.998972 0.0453274 -1.50742e-007
    length 9.56202
    axis 2.65071e-005 8.63688e-006 2.59796 xyz
  end
  begin
    id 5
    name neckDummy
    direction 0.99977 0.0214525 -1.61748e-007
    length 1.93574
    axis 2.62932e-005 9.26758e-006 1.22924 xyz
    dof rx ry rz
  end
  begin
    id 6
    name neck
    direction 0.99928 -0.0379406 -1.88707e-007
    length 3.70367
    axis 2.56966e-005 1.08122e-005 -2.17436 xyz
    dof rx ry rz
  end
  begin
    id 7
    name head
    direction 0.992648 -0.121037 -2.25408e-007
    length 6.35158
    axis 2.47068e-005 1.29149e-005 -6.95196 xyz
    dof rx ry rz
  end
  begin
    id 8
    name figureHair
    direction -0.86681 -0.498639 -7.83376e-008
    length 8.29884
    axis -2.7515e-005 4.48842e-006 -150.09 xyz
    dof rx ry rz
  end
  begin
    id 9
    name lCollarDummy
    direction 0.994611 0.0451299 -0.0933417
    length 9.60395
    axis 2.65071e-005 8.63688e-006 2.59796 xyz
  end
  begin
    id 10
    name lCollar
    direction 0.0384146 0.00127577 -0.999261
    length 6.95318
    axis 90.4899 87.7973 1.90202 xyz
    dof rx ry rz
  end
  begin
    id 11
    name lShldr
    direction -0.030648 0.0920515 -0.995282
    length 9.61158
    axis -161.793 84.4324 108.415 xyz
    dof rx ry rz
  end
  begin
    id 12
    name lForeArm
    direction 0.000163956 -0.0977586 -0.99521
    length 8.6068
    axis 0.134773 84.3899 -89.8525 xyz
    dof rx ry rz
  end
  begin
    id 13
    name lHand
    direction -0.0190533 -0.1444 -0.989336
    length 7.61479
    axis -7.3729 81.6249 -97.517 xyz
    dof rx ry rz
  end
  begin
    id 14
    name rCollarDummy
    direction 0.994871 0.0442627 0.0909555
    length 9.60761
    axis 2.65071e-005 8.63688e-006 2.59796 xyz
  end
  begin
    id 15
    name rCollar
    direction 0.0334251 -4.74072e-007 0.999441
    length 6.97058
    axis -178.152 -88.0845 -0.000674207 xyz
    dof rx ry rz
  end
  begin
    id 16
    name rShldr
    direction -0.026922 0.0719509 0.997045
    length 9.60913
    axis 71.2822 -85.594 110.514 xyz
    dof rx ry rz
  end
  begin
    id 17
    name rForeArm
    direction 0.00134679 -0.118986 0.992895
    length 8.57176
    axis -88.7923 -83.1659 -89.3516 xyz
    dof rx ry rz
  end
  begin
    id 18
    name rHand
    direction -0.0185183 -0.0768601 0.99687
    length 7.69687
    axis -74.5596 -85.4655 -103.546 xyz
    dof rx ry rz
  end
  begin
    id 19
    name lThighDummy
    direction -0.236086 -0.0385456 -0.970967
    length 4.99155
    axis 0 0 0 xyz
  end
  begin
    id 20
    name lThigh
    direction -0.993968 0.0148998 -0.108653
    length 13.572
    axis -91.4001 6.23768 179.141 xyz
    dof rx ry rz
  end
  begin
    id 21
    name lShin
    direction -0.992341 0.0904576 -0.0841193
    length 18.5862
    axis -91.4558 4.82538 174.792 xyz
    dof rx ry rz
  end
  begin
    id 22
    name lFoot
    direction 0.0209381 -0.999771 -0.00453005
    length 8.44474
    axis 4.86759 0.259522 -88.8001 xyz
    dof rx ry rz
  end
  begin
    id 23
    name rThighDummy
    direction -0.236086 -0.0385456 0.970967
    length 4.99155
    axis 0 0 0 xyz
  end
  begin
    id 24
    name rThigh
    direction -0.993968 0.0148995 0.108653
    length 13.5721
    axis -89.7059 -6.2377 179.141 xyz
    dof rx ry rz
  end
  begin
    id 25
    name rShin
    direction -0.9925 0.0899962 0.0827255
    length 18.6716
    axis -89.2745 -4.74775 174.819 xyz
    dof rx ry rz
  end
  begin
    id 26
    name rFoot
    direction 0.0301721 -0.999545 9.70865e-005
    length 8.45013
    axis -2.50066e-005 -0.00555246 -88.271 xyz
    dof rx ry rz
  end
:hierarchy
  begin
    root abdomenDummy lThighDummy rThighDummy
    abdomenDummy abdomen
    abdomen chest
    chest neckDummyDummy lCollarDummy rCollarDummy
    neckDummyDummy neckDummy
    neckDummy neck
    neck head
    head figureHair
    lCollarDummy lCollar
    lCollar lShldr
    lShldr lForeArm
    lForeArm lHand
    rCollarDummy rCollar
    rCollar rShldr
    rShldr rForeArm
    rForeArm rHand
    lThighDummy lThigh
    lThigh lShin
    lShin lFoot
    rThighDummy rThigh
    rThigh rShin
    rShin rFoot
  end

:SAMPLES-PER-SECOND 25
:FULLY-SPECIFIED
:DEGREES
117
root  3.13269 37.0875 -1.32033 177.681 -0.00860596 89.1317
abdomen  -1.06732 -3.53427 4.31395
chest  -0.47262 1.25752 -15.9615
neckDummy  9.09964e-021 0 8.72668e-016
neck  3.31585 11.4623 5.31074
head  0.381522 -10.7069 -17.1028
figureHair  0 1.51661e-021 -9.5315e-016
lCollar  -5.15695e-016 -6.42944e-016 -7.59357e-014
lShldr  -20.3987 -7.59492 -56.2999
lForeArm  164.536 -61.3067 174.76
lHand  0.254698 0.195082 5.2986
rCollar  1.7976e-016 -5.12864e-014 1.62755e-015
rShldr  12.8424 53.9739 2.41663
rForeArm  35.7328 -0.820472 119.424
rHand  -1.64845 10.0787 -11.844
lThigh  -7.33014 -1.10743 -0.0767486
lShin  -12.3796 0.852799 -5.2425
lFoot  5.50913 -0.444823 -3.48031
rThigh  8.82367 -4.14536 -0.311665
rShin  0.423244 4.81745 2.85178
rFoot  -4.81488 0.155693 -3.40577
118
root  3.16875 37.0857 -1.32959 177.892 -0.00776672 88.8329
abdomen  -1.07306 -3.30994 4.3479
chest  -0.535244 0.822251 -16.0329
neckDummy  9.09964e-021 0 8.72668e-016
neck  3.3581 12.036 3.80733
head  0.43302 -10.7183 -17.4231
figureHair  0 1.51661e-021 -9.5315e-016
lCollar  -5.15695e-016 -6.42944e-016 -7.59357e-014
lShldr  -22.4261 -11.3336 -63.1344
lForeArm  159.78 -62.3413 174.591
lHand  0.254698 0.195082 5.2986
rCollar  1.7976e-016 -5.12864e-014 1.62755e-015
rShldr  20.9303 60.9692 9.75448
rForeArm  46.5157 -0.829414 119.928
rHand  -0.466772 -27.1053 5.75993
lThigh  -7.36179 -0.93569 -0.0632809
lShin  -12.113 0.918917 -5.22058
lFoot  5.51377 -0.44194 -3.54691
rThigh  8.87486 -3.92659 -0.325722
rShin  0.571764 4.95173 2.87293
rFoot  -4.86355 0.163057 -3.38283
119
root  3.21106 37.0831 -1.32936 178.043 0.0197906 88.5718
abdomen  -1.07108 -3.53339 4.29324
chest  -0.474055 1.2179 -15.7765
neckDummy  9.09964e-021 0 8.72668e-016
neck  3.1178 11.6956 2.17392
head  0.464604 -10.3321 -17.5868
figureHair  0 1.51661e-021 -9.5315e-016
lCollar  -5.15695e-016 -6.42944e-016 -7.59357e-014
lShldr  -25.1703 -14.9925 -69.0722
lForeArm  167.561 -64.8894 174.118
lHand  0.254698 0.195082 5.2986
rCollar  1.7976e-016 -5.12864e-014 1.62755e-015
rShldr  33.6932 66.3499 19.5372
rForeArm  31.7428 -0.76424 116.337
rHand  -11.868 -44.1591 33.1507
lThigh  -7.33148 -0.794445 -0.105227
lShin  -11.982 0.960352 -5.18815
lFoot  5.51706 -0.439337 -3.60671
rThigh  8.95575 -3.79982 -0.382423
rShin  0.638658 5.12779 2.88833
rFoot  -4.90934 0.169575 -3.36469
120
root  3.24864 37.0811 -1.32444 178.23 0.0744629 88.4341
abdomen  -1.04479 -4.04489 4.209
chest  -0.313387 2.07963 -15.3196
neckDummy  9.09964e-021 0 8.72668e-016
neck  2.74632 11.1013 0.930872
head  0.409729 -10.2149 -17.6948
figureHair  0 1.51661e-021 -9.5315e-016
lCollar  -5.15695e-016 -6.42944e-016 -7.59357e-014
lShldr  -26.0872 -18.1308 -72.3441
lForeArm  -171.415 -71.0456 172.481
lHand  0.254698 0.195082 5.2986
rCollar  1.7976e-016 -5.12864e-014 1.62755e-015
rShldr  44.4646 68.492 25.7421
rForeArm  7.32027 -0.616706 108.689
rHand  -21.0706 -46.8459 50.0509
lThigh  -7.22993 -0.763082 -0.201327
lShin  -11.8904 0.956625 -5.13143
lFoot  5.50126 -0.43405 -3.68919
rThigh  9.02739 -3.77051 -0.470496
rShin  0.729653 5.28313 2.88917
rFoot  -4.89656 0.174185 -3.31897
121
root  3.26562 37.0821 -1.32191 178.475 0.098175 88.4371
abdomen  -0.938255 -4.31155 4.41907
chest  -0.137092 2.36513 -15.1928
neckDummy  9.09964e-021 0 8.72668e-016
neck  2.53617 11.1449 0.432934
head  0.277689 -10.3714 -17.8869
figureHair  0 1.51661e-021 -9.5315e-016
lCollar  -5.15695e-016 -6.42944e-016 -7.59357e-014
lShldr  -25.6464 -20.2851 -72.4602
lForeArm  -138.394 -81.027 165.504
lHand  0.254698 0.195082 5.2986
rCollar  1.7976e-016 -5.12864e-014 1.62755e-015
rShldr  46.2009 67.1454 23.7377
rForeArm  -10.3252 -0.429483 99.6264
rHand  -20.123 -46.3571 48.3907
lThigh  -7.17356 -0.825415 -0.248994
lShin  -11.7114 0.923884 -5.09377
lFoot  5.50896 -0.430986 -3.76394
rThigh  9.0258 -3.7349 -0.499441
rShin  0.948495 5.2634 2.89056
rFoot  -4.81945 0.171464 -3.28387
122
root  3.26561 37.0822 -1.31646 178.742 0.109756 88.469
abdomen  -0.882889 -4.21106 4.79581
chest  -0.108494 2.04277 -15.5282
neckDummy  9.09964e-021 0 8.72668e-016
neck  2.71103 11.5607 0.808039
head  0.287328 -10.1351 -18.0882
figureHair  0 1.51661e-021 -9.5315e-016
lCollar  -5.15695e-016 -6.42944e-016 -7.59357e-014
lShldr  -25.5217 -20.4775 -69.8964
lForeArm  -1.3808 -86.6553 51.3767
lHand  0.254698 0.195082 5.2986
rCollar  1.7976e-016 -5.12864e-014 1.62755e-015
rShldr  39.7369 63.0866 16.5495
rForeArm  -23.5796 -0.258125 91.6967
rHand  -11.3725 -42.0712 32.5869
lThigh  -7.18047 -0.881037 -0.259685
lShin  -11.4522 0.88063 -5.10016
lFoot  5.57203 -0.433649 -3.81075
rThigh  9.03999 -3.67128 -0.52216
rShin  1.20244 5.19342 2.92279
rFoot  -4.75915 0.170518 -3.24699
123
root  3.26271 37.0794 -1.30168 178.967 0.163132 88.4618
abdomen  -1.01059 -4.07993 4.90196
chest  -0.274022 1.76681 -15.8844
neckDummy  9.09964e-021 0 8.72668e-016
neck  3.24608 11.982 1.73729
head  0.549772 -9.67611 -18.2323
figureHair  0 1.51661e-021 -9.5315e-016
lCollar  -5.15695e-016 -6.42944e-016 -7.59357e-014
lShldr  -23.933 -18.7005 -64.84
lForeArm  56.0516 -80.4456 4.8437
lHand  0.254698 0.195082 5.2986
rCollar  1.7976e-016 -5.12864e-014 1.62755e-015
rShldr  29.1306 56.9844 9.39309
rForeArm  -33.094 -0.148617 86.7245
rHand  -0.877143 -29.3958 6.87561
lThigh  -7.16771 -0.889741 -0.319262
lShin  -11.2368 0.857075 -5.12836
lFoot  5.64045 -0.437924 -3.83175
rThigh  9.16406 -3.66575 -0.641378
rShin  1.32631 5.30786 2.97653
rFoot  -4.77062 0.182798 -3.15762
